<svg width="25" height="25" fill="none" xmlns="http://www.w3.org/2000/svg"><path d="M12.178 21h-.18a62.508 62.508 0 0 1-3.982-.11c-1.163-.07-2.224-.472-3.069-1.161-.815-.665-1.372-1.564-1.655-2.672-.246-.965-.26-1.912-.272-2.828-.009-.657-.018-1.435-.02-2.227.002-.796.011-1.574.02-2.231.013-.916.026-1.863.272-2.828.283-1.108.84-2.007 1.655-2.672.845-.689 1.906-1.09 3.069-1.161A62.72 62.72 0 0 1 12.002 3a62.977 62.977 0 0 1 3.982.11c1.163.07 2.224.472 3.069 1.161.816.665 1.372 1.564 1.655 2.672.246.965.26 1.912.272 2.828.009.657.018 1.435.02 2.227v.004c-.002.791-.011 1.57-.02 2.227-.013.916-.026 1.863-.272 2.828-.283 1.108-.84 2.007-1.655 2.672-.845.689-1.906 1.09-3.069 1.161-1.214.074-2.461.11-3.806.11Zm-.18-1.407a61.425 61.425 0 0 0 3.9-.107c.88-.053 1.642-.338 2.266-.847.577-.47.975-1.12 1.181-1.93.205-.803.217-1.665.229-2.499.008-.653.018-1.426.02-2.21-.002-.784-.012-1.557-.02-2.21-.012-.834-.024-1.696-.229-2.499-.206-.81-.604-1.46-1.18-1.93-.625-.509-1.387-.794-2.266-.848a61.445 61.445 0 0 0-3.897-.107 61.273 61.273 0 0 0-3.9.107c-.88.054-1.642.34-2.266.848-.577.47-.975 1.12-1.181 1.93-.205.803-.217 1.665-.229 2.499-.008.653-.018 1.427-.02 2.212.002.781.012 1.555.02 2.208.012.834.024 1.696.229 2.499.206.81.604 1.46 1.18 1.93.625.509 1.387.794 2.266.847 1.238.076 2.513.11 3.897.107Zm-.033-3.198A4.4 4.4 0 0 1 7.57 12a4.4 4.4 0 0 1 4.395-4.395A4.4 4.4 0 0 1 16.36 12a4.4 4.4 0 0 1-4.395 4.395Zm0-7.383A2.992 2.992 0 0 0 8.976 12a2.992 2.992 0 0 0 2.989 2.988A2.992 2.992 0 0 0 14.953 12a2.992 2.992 0 0 0-2.988-2.988Zm4.887-2.813a1.055 1.055 0 1 0 0 2.11 1.055 1.055 0 0 0 0-2.11Z" fill="#F8F8F8"/></svg>